<?xml version="1.0" encoding="UTF-8"?>
<svg width="67px" height="67px" viewBox="0 0 67 67" version="1.1" xmlns="http://www.w3.org/2000/svg" xmlns:xlink="http://www.w3.org/1999/xlink">
    <!-- Generator: Sketch 60.1 (88133) - https://sketch.com -->
    <title>Crosshair</title>
    <desc>Created with Sketch.</desc>
    <g id="Symbols" stroke="none" stroke-width="1" fill="none" fill-rule="evenodd" opacity="0.9">
        <g id="Crosshair" transform="translate(2.000000, 2.000000)" fill="#FFFFFF" stroke="#979797" stroke-width="2">
            <g>
                <path d="M37.5005236,15.0247121 C42.4413838,16.7713071 46.398342,20.6155085 48.290405,25.5002151 L64,25.4999854 L64,37.4999521 L48.6437171,37.5006878 C46.9307026,42.8434299 42.7877214,47.106464 37.5005219,48.975302 L37.4999628,64 L25.4999691,64 L25.5004327,48.9756394 C20.2124633,47.1068664 16.0689078,42.8432447 14.3559773,37.4997344 L-1,37.5000185 L-1,25.5000501 L14.7099638,25.4992632 C16.6023039,20.6146685 20.5594732,16.7706886 25.5004341,15.0243736 L25.4999711,-1 L37.4999651,-1 L37.5005236,15.0247121 Z M31.5,23 C26.5294373,23 22.5,27.0294373 22.5,32 C22.5,36.9705627 26.5294373,41 31.5,41 C36.4705627,41 40.5,36.9705627 40.5,32 C40.5,27.0294373 36.4705627,23 31.5,23 Z" id="Combined-Shape" stroke-linejoin="round"></path>
                <circle id="Oval" cx="31.5" cy="32" r="4"></circle>
            </g>
        </g>
    </g>
</svg>