<?xml version="1.0" encoding="UTF-8"?>
<svg width="136px" height="136px" viewBox="0 0 136 136" version="1.1" xmlns="http://www.w3.org/2000/svg" xmlns:xlink="http://www.w3.org/1999/xlink">
    <!-- Generator: Sketch 60.1 (88133) - https://sketch.com -->
    <title>Success</title>
    <desc>Created with Sketch.</desc>
    <g id="Symbols" stroke="none" stroke-width="1" fill="none" fill-rule="evenodd">
        <g id="Results-Icon/Success">
            <g id="Success">
                <circle id="Oval" fill="#FFFFFF" cx="68" cy="68" r="60"></circle>
                <path d="M68,0 C105.555363,0 136,30.444637 136,68 C136,105.555363 105.555363,136 68,136 C30.444637,136 0,105.555363 0,68 C0,30.444637 30.444637,0 68,0 Z M68,8 C34.862915,8 8,34.862915 8,68 C8,101.137085 34.862915,128 68,128 C101.137085,128 128,101.137085 128,68 C128,34.862915 101.137085,8 68,8 Z" id="Oval" fill="#149600" fill-rule="nonzero"></path>
                <circle id="Oval" fill="#29C019" cx="68" cy="68" r="44"></circle>
                <path d="M89.0846077,49.2612982 C90.597151,47.6511715 93.1285751,47.5720644 94.7387018,49.0846077 C96.2951577,50.5467329 96.4209606,52.9609456 95.0613434,54.57469 L94.9153923,54.7387018 L63.9153923,87.7387018 C62.3521072,89.4028441 59.7302784,89.4147339 58.1502335,87.807117 L58.0006486,87.6464865 L43.0006486,70.6464865 C41.5390344,68.9899905 41.6970174,66.4622627 43.3535135,65.0006486 C44.954793,63.5877549 47.3701901,63.6882848 48.849708,65.1928634 L48.9993514,65.3535135 L61.092,79.059 L89.0846077,49.2612982 Z" id="Path-3" fill="#FFFFFF" fill-rule="nonzero"></path>
            </g>
        </g>
    </g>
</svg>