<?xml version="1.0" encoding="UTF-8"?>
<svg width="136px" height="136px" viewBox="0 0 136 136" version="1.1" xmlns="http://www.w3.org/2000/svg" xmlns:xlink="http://www.w3.org/1999/xlink">
    <!-- Generator: Sketch 60.1 (88133) - https://sketch.com -->
    <title>Error</title>
    <desc>Created with Sketch.</desc>
    <g id="Symbols" stroke="none" stroke-width="1" fill="none" fill-rule="evenodd">
        <g id="Results-Icon/Error">
            <g id="Error">
                <circle id="Oval" fill="#FFFFFF" cx="68" cy="68" r="68"></circle>
                <path d="M68,0 C105.555363,0 136,30.444637 136,68 C136,105.555363 105.555363,136 68,136 C30.444637,136 0,105.555363 0,68 C0,30.444637 30.444637,0 68,0 Z M68,8 C34.862915,8 8,34.862915 8,68 C8,101.137085 34.862915,128 68,128 C101.137085,128 128,101.137085 128,68 C128,34.862915 101.137085,8 68,8 Z" id="Oval" fill="#B00000" fill-rule="nonzero"></path>
                <circle id="Oval" fill="#D91C1C" cx="68" cy="68" r="44"></circle>
                <path d="M86.1877085,48.0846199 C87.7441643,49.5467451 87.8699672,51.9609578 86.51035,53.5747023 L86.3643989,53.7387141 L73.508,67.423 L86.7367923,80.7483747 C88.2931511,82.3161892 88.2838645,84.8488321 86.7160501,86.405191 C85.2004961,87.9096712 82.7833635,87.9511427 81.2180521,86.5360348 L81.0592338,86.3844487 L68.028,73.257 L55.3643989,86.7387141 C53.8518556,88.3488408 51.3204315,88.4279478 49.7103048,86.9154045 C48.153849,85.4532794 48.028046,83.0390666 49.3876633,81.4253222 L49.5336143,81.2613104 L62.389,67.576 L49.1612209,54.2516497 C47.6048621,52.6838352 47.6141487,50.1511923 49.1819632,48.5948335 C50.6975172,47.0903532 53.1146497,47.0488817 54.6799611,48.4639896 L54.8387794,48.6155757 L67.869,61.742 L80.5336143,48.2613104 C82.0461576,46.6511837 84.5775818,46.5720767 86.1877085,48.0846199 Z" id="Combined-Shape" fill="#FFFFFF" fill-rule="nonzero"></path>
            </g>
        </g>
    </g>
</svg>