<?xml version="1.0" encoding="UTF-8"?>
<svg width="60px" height="94px" viewBox="0 0 60 94" version="1.1" xmlns="http://www.w3.org/2000/svg" xmlns:xlink="http://www.w3.org/1999/xlink">
    <!-- Generator: Sketch 60.1 (88133) - https://sketch.com -->
    <title>Parking Pin</title>
    <desc>Created with Sketch.</desc>
    <g id="Page-1" stroke="none" stroke-width="1" fill="none" fill-rule="evenodd">
        <g id="Parking-Pin" transform="translate(2.000000, 2.000000)">
            <path d="M28.1513056,90.5288835 C8.71149093,59.333996 -1,38.5714981 -1,28 C-1,11.9837423 11.9837423,-1 28,-1 C44.0162577,-1 57,11.9837423 57,28 C57,38.5550838 47.9592778,59.3152608 29.8649577,90.5018447 L29.0306085,91.9398927 L28.1513056,90.5288835 Z" id="Oval" stroke="#149600" stroke-width="2" fill="#29C019" stroke-linejoin="round"></path>
            <circle id="Oval-Copy-2" fill-opacity="0.411166958" fill="#D8D8D8" cx="28" cy="28" r="19"></circle>
            <path d="M26.6835938,41 L26.6835938,31.859375 L29.0214844,31.859375 C32.2089844,31.859375 34.6669922,31.1269531 36.3955078,29.6621094 C38.1240234,28.1972656 38.9882812,26.0820312 38.9882812,23.3164062 C38.9882812,20.65625 38.1767578,18.6552734 36.5537109,17.3134766 C34.9306641,15.9716797 32.5605469,15.3007812 29.4433594,15.3007812 L29.4433594,15.3007812 L21.234375,15.3007812 L21.234375,41 L26.6835938,41 Z M28.4765625,27.3945312 L26.6835938,27.3945312 L26.6835938,19.765625 L29.1621094,19.765625 C30.6503906,19.765625 31.7431641,20.0703125 32.4404297,20.6796875 C33.1376953,21.2890625 33.4863281,22.2324219 33.4863281,23.5097656 C33.4863281,24.7753906 33.0703125,25.7392578 32.2382812,26.4013672 C31.40625,27.0634766 30.1523438,27.3945312 28.4765625,27.3945312 L28.4765625,27.3945312 Z" id="P" fill="#FFFFFF" fill-rule="nonzero"></path>
        </g>
    </g>
</svg>